<svg width="76" height="22" viewBox="0 0 76 22" fill="none" xmlns="http://www.w3.org/2000/svg">
<path d="M12 0L14.6942 8.2918H23.4127L16.3592 13.4164L19.0534 21.7082L12 16.5836L4.94657 21.7082L7.64073 13.4164L0.587311 8.2918H9.30582L12 0Z" fill="#FCA600"/>
<path d="M38 0L40.6942 8.2918H49.4127L42.3592 13.4164L45.0534 21.7082L38 16.5836L30.9466 21.7082L33.6407 13.4164L26.5873 8.2918H35.3058L38 0Z" fill="#FCA600"/>
<path d="M64 0L66.6942 8.2918H75.4127L68.3592 13.4164L71.0534 21.7082L64 16.5836L56.9466 21.7082L59.6407 13.4164L52.5873 8.2918H61.3058L64 0Z" fill="#FCA600"/>
</svg>
