<svg width="128" height="24" viewBox="0 0 128 24" fill="none" xmlns="http://www.w3.org/2000/svg">
<path d="M12 0L14.6942 8.2918H23.4127L16.3593 13.4164L19.0534 21.7082L12 16.5836L4.94658 21.7082L7.64074 13.4164L0.587322 8.2918H9.30583L12 0Z" fill="#FCA600"/>
<path d="M38 0L40.6942 8.2918H49.4127L42.3593 13.4164L45.0534 21.7082L38 16.5836L30.9466 21.7082L33.6407 13.4164L26.5873 8.2918H35.3058L38 0Z" fill="#FCA600"/>
<path d="M64 0L66.6942 8.2918H75.4127L68.3593 13.4164L71.0534 21.7082L64 16.5836L56.9466 21.7082L59.6407 13.4164L52.5873 8.2918H61.3058L64 0Z" fill="#FCA600"/>
<path d="M90 0L92.6942 8.2918H101.413L94.3593 13.4164L97.0534 21.7082L90 16.5836L82.9466 21.7082L85.6407 13.4164L78.5873 8.2918H87.3058L90 0Z" fill="#FCA600"/>
<path d="M116 0L118.694 8.2918H127.413L120.359 13.4164L123.053 21.7082L116 16.5836L108.947 21.7082L111.641 13.4164L104.587 8.2918H113.306L116 0Z" fill="#FCA600"/>
</svg>
