<svg xmlns="http://www.w3.org/2000/svg" xmlns:xlink="http://www.w3.org/1999/xlink" width="500" zoomAndPan="magnify" viewBox="0 0 375 374.999991" height="500" preserveAspectRatio="xMidYMid meet" version="1.0"><defs><clipPath id="5fa60cfa31"><path d="M 85.785156 77.625 L 289.035156 77.625 L 289.035156 297.375 L 85.785156 297.375 Z M 85.785156 77.625 " clip-rule="nonzero"/></clipPath></defs><g clip-path="url(#5fa60cfa31)"><path fill="#000000" d="M 288.980469 296.691406 C 274.082031 294.65625 258.902344 293.183594 243.566406 292.238281 C 241.878906 288.441406 239.53125 285.105469 236.527344 282.230469 C 232.164062 278.125 227.382812 274.578125 222.191406 271.589844 C 224.761719 271.621094 227.253906 272.066406 229.675781 272.929688 C 232.097656 273.789062 234.3125 275.019531 236.324219 276.621094 C 243.964844 250.015625 267.519531 234.621094 260.355469 199.023438 C 264.433594 176.765625 255.15625 163.265625 249.738281 151.363281 C 252.464844 153.035156 254.511719 155.320312 255.882812 158.210938 C 257.886719 150.109375 260.933594 142.539062 254.714844 132.394531 C 261.816406 138.320312 262.234375 145.0625 260.109375 155.167969 C 268.410156 151.183594 272.148438 146.019531 274.152344 140.40625 C 275.417969 136.863281 275.613281 131.925781 277.121094 127.644531 C 279.050781 122.160156 281.21875 118.40625 280.289062 115.765625 C 279.332031 113.542969 278.191406 111.421875 276.863281 109.402344 C 273.753906 104.800781 270.027344 100.769531 265.683594 97.308594 C 261.339844 93.847656 256.578125 91.117188 251.398438 89.117188 C 238.800781 84.019531 227.410156 84.15625 216.640625 78.554688 C 216.039062 78.234375 215.402344 78.046875 214.726562 77.980469 C 211.0625 77.597656 206.917969 77.644531 203.820312 78.902344 C 199.566406 80.621094 196.738281 83.234375 191.398438 84.25 C 190.398438 84.425781 189.527344 84.863281 188.785156 85.554688 C 188.171875 86.117188 187.625 86.738281 187.152344 87.421875 C 186.613281 88.167969 186.296875 89 186.199219 89.917969 C 186.105469 90.832031 186.238281 91.710938 186.609375 92.558594 C 188.011719 95.910156 188.097656 99.78125 189.125 102.296875 C 189.242188 102.589844 189.40625 102.855469 189.617188 103.085938 C 189.828125 103.320312 190.074219 103.511719 190.351562 103.660156 C 190.628906 103.804688 190.925781 103.902344 191.238281 103.941406 C 191.550781 103.984375 191.859375 103.972656 192.167969 103.90625 C 194.542969 103.335938 196.945312 103.175781 199.378906 103.425781 C 199.847656 103.488281 200.320312 103.484375 200.792969 103.421875 C 201.261719 103.355469 201.714844 103.226562 202.152344 103.039062 C 202.589844 102.847656 202.992188 102.605469 203.363281 102.308594 C 203.734375 102.007812 204.058594 101.664062 204.335938 101.277344 C 206.171875 98.78125 207.613281 95.785156 210.664062 94.488281 C 211.929688 92.71875 212.800781 90.769531 213.277344 88.648438 C 213.753906 86.523438 213.796875 84.390625 213.410156 82.25 C 216.277344 86.175781 215.75 90.761719 214.226562 95.339844 C 224.675781 97.320312 228.484375 109.53125 240.050781 116.234375 C 248.089844 108.132812 260.273438 115.238281 271.335938 113 C 261.796875 119.960938 248.117188 109.480469 237.996094 122.863281 C 241.246094 122.136719 244.402344 123.074219 247.390625 124.28125 C 230.566406 124.332031 215.6875 132.738281 209.539062 149.996094 C 211.519531 149.988281 213.390625 149.535156 215.160156 148.640625 C 214.082031 150.316406 212.625 151.535156 210.78125 152.289062 C 208.03125 153.558594 206.695312 153.742188 203.914062 152.453125 C 200.917969 150.863281 198.351562 148.75 196.210938 146.117188 C 193.140625 142.65625 191.738281 141.753906 191.476562 137.019531 C 191.308594 134.054688 191.464844 130.777344 189.796875 126.550781 C 186.527344 118.261719 177.917969 111.777344 168.859375 111.902344 C 158.5 112.050781 147.171875 121.183594 142.957031 130.28125 C 142.265625 131.714844 141.808594 133.222656 141.589844 134.796875 C 141.371094 136.375 141.398438 137.945312 141.671875 139.515625 C 142.035156 141.675781 143.054688 143.234375 143.28125 145.171875 C 143.285156 146.347656 143.515625 147.476562 143.980469 148.554688 C 144.59375 149.351562 145.386719 149.882812 146.355469 150.15625 C 147.589844 150.652344 147.761719 151.140625 147.363281 152.359375 C 146.808594 153.894531 146.578125 155.476562 146.671875 157.105469 C 146.695312 159.117188 146.652344 160.992188 146.546875 163 C 146.527344 163.449219 146.910156 163.785156 147.390625 164.03125 C 147.800781 164.277344 148.242188 164.410156 148.722656 164.433594 C 149.199219 164.453125 149.652344 164.355469 150.082031 164.140625 C 150.605469 163.925781 150.976562 163.699219 151.355469 163.53125 C 152.023438 163.242188 152.542969 163.195312 152.914062 163.671875 C 153.25 164.175781 153.378906 164.730469 153.304688 165.328125 C 153.222656 165.832031 153.3125 166.300781 153.570312 166.734375 C 154.070312 167.207031 154.65625 167.5 155.332031 167.617188 C 155.621094 167.683594 155.859375 167.828125 156.046875 168.054688 C 156.238281 168.28125 156.339844 168.542969 156.355469 168.835938 C 156.367188 169.054688 156.414062 169.265625 156.488281 169.472656 C 156.847656 170.382812 157.710938 170.285156 158.460938 170.878906 C 159.078125 171.394531 159.480469 172.046875 159.667969 172.832031 C 160.039062 174.214844 159.667969 174.628906 161.121094 175.671875 C 161.855469 176.175781 162.65625 176.503906 163.53125 176.660156 C 167.058594 177.351562 169.960938 173.855469 172.027344 171.40625 C 176.207031 166.453125 179.304688 159.609375 179.304688 153.203125 C 182.449219 159.113281 177.46875 168.664062 173.308594 174.214844 C 174.132812 174.429688 174.875 174.804688 175.535156 175.339844 C 176.195312 175.875 176.710938 176.527344 177.089844 177.289062 C 181.113281 174.46875 182.523438 167.554688 187.835938 167.75 C 181.328125 171.175781 180.652344 181.457031 171.414062 182.898438 C 172.742188 183.703125 173.835938 184.75 174.707031 186.035156 C 175.574219 187.320312 176.132812 188.730469 176.386719 190.261719 C 174.167969 187.636719 171.523438 185.550781 168.453125 184.007812 C 154.730469 177.046875 140.851562 186.113281 133.90625 198.300781 C 131.527344 198.398438 129.214844 198.84375 126.96875 199.636719 C 124.726562 200.429688 122.644531 201.535156 120.730469 202.953125 C 122.15625 209.257812 122.390625 218.953125 113.835938 225.46875 C 125.292969 202.929688 109.679688 190.40625 104.339844 175.246094 C 103.003906 171.457031 101.96875 166.652344 103.820312 162.851562 C 102.675781 162.289062 101.703125 161.507812 100.902344 160.511719 C 100.105469 159.515625 99.554688 158.394531 99.253906 157.152344 C 106.519531 163.21875 115.175781 160.675781 118.1875 155.726562 C 120.390625 156.121094 124.324219 156.453125 126.289062 155.230469 C 126.941406 154.816406 127.433594 154.257812 127.765625 153.558594 C 128.015625 153.121094 128.152344 152.65625 128.179688 152.15625 C 128.203125 151.65625 128.117188 151.175781 127.910156 150.71875 C 127.410156 149.785156 126.199219 149.363281 124.699219 148.980469 C 124.585938 147.625 124.289062 146.3125 123.808594 145.039062 C 123.585938 144.421875 123.226562 143.894531 122.734375 143.460938 C 122.242188 143.023438 121.675781 142.730469 121.035156 142.582031 C 117.703125 141.777344 114.542969 140.542969 111.550781 138.871094 C 111.289062 138.71875 111.007812 138.617188 110.707031 138.5625 C 110.410156 138.507812 110.109375 138.503906 109.808594 138.554688 C 109.507812 138.601562 109.226562 138.699219 108.957031 138.84375 C 108.691406 138.988281 108.457031 139.175781 108.253906 139.402344 C 103.785156 144.230469 98.949219 148.65625 93.75 152.6875 C 93.023438 153.25 92.488281 153.953125 92.140625 154.804688 C 86.40625 168.359375 84.730469 188.011719 86.402344 207.558594 C 87.003906 214.628906 92.449219 235.191406 97.746094 239.835938 C 98.355469 240.386719 99.042969 240.808594 99.804688 241.105469 C 103.535156 242.496094 108.757812 242.277344 112.476562 242.3125 C 127.011719 246.792969 137.71875 243.796875 149.15625 234.496094 C 157.300781 227.863281 165.054688 220.300781 177.105469 225.910156 C 170.820312 225.226562 167.375 226.117188 163.535156 229.253906 C 165.640625 229.910156 167.476562 231.015625 169.046875 232.5625 C 172.898438 236.113281 175.179688 238.808594 178.167969 241.289062 C 183.601562 245.800781 190.765625 248.664062 197.5 250.613281 C 202.496094 252.019531 207.558594 253.117188 212.6875 253.90625 C 196.808594 254.359375 183.960938 251.5 174.871094 244.304688 C 174.570312 245.515625 174.484375 246.746094 174.617188 247.988281 C 174.75 249.230469 175.09375 250.410156 175.644531 251.53125 C 176.007812 252.226562 176.042969 252.941406 175.757812 253.667969 C 174.328125 257.511719 173.144531 263.832031 176.695312 269.035156 C 176.972656 269.425781 177.128906 269.863281 177.164062 270.339844 C 177.203125 270.816406 177.113281 271.269531 176.902344 271.699219 C 174.324219 277.121094 172.078125 285.027344 173.289062 291.757812 C 155.003906 292.636719 136.902344 294.269531 119.207031 296.691406 C 119.039062 296.710938 118.960938 296.804688 118.972656 296.972656 C 118.984375 297.140625 119.074219 297.226562 119.242188 297.226562 L 288.945312 297.226562 C 289.109375 297.222656 289.199219 297.140625 289.210938 296.972656 C 289.222656 296.808594 289.148438 296.710938 288.980469 296.691406 Z M 188.851562 291.210938 C 187.820312 291.234375 186.792969 291.261719 185.761719 291.289062 C 187.84375 286.636719 190.617188 282.4375 194.082031 278.699219 C 192.070312 282.757812 190.328125 286.929688 188.851562 291.210938 Z M 215.101562 181.460938 C 235.746094 191.886719 238.984375 215.53125 235.257812 236.347656 C 238.992188 244.351562 238.609375 252.25 236.078125 262.105469 C 236.558594 252.394531 234.804688 244.855469 231.089844 238.65625 C 234.21875 218.835938 232.03125 197.007812 215.101562 181.460938 Z M 215.101562 181.460938 " fill-opacity="1" fill-rule="nonzero"/></g></svg>